<mxfile host="app.diagrams.net" modified="2023-11-21T14:30:07.104Z" agent="Mozilla/5.0 (Windows NT 10.0; Win64; x64) AppleWebKit/537.36 (KHTML, like Gecko) Chrome/119.0.0.0 Safari/537.36" version="22.1.3" etag="BtQhX4euGHky0wvehS_t" type="github">
  <diagram name="Page-1" id="3d6aBdjwHpSl0JN3woVV">
    <mxGraphModel>
      <root>
        <mxCell id="0" />
        <mxCell id="1" parent="0" />
      </root>
    </mxGraphModel>
  </diagram>
</mxfile>
